<?xml version="1.0" encoding="UTF-8"?>
<svg id="Layer_1" data-name="Layer 1" xmlns="http://www.w3.org/2000/svg" viewBox="0 0 202.25 215.81">
  <defs>
    <style>
      .cls-1 {
        fill: #2b2823;
      }
    </style>
  </defs>
  <polygon class="cls-1" points="11.94 25.21 198.27 215.81 199.12 182.48 16.64 0 11.94 25.21"/>
  <polygon class="cls-1" points="199.12 182.48 188.08 181.81 188.53 205.65 198.27 215.81 199.12 182.48"/>
  <polygon class="cls-1" points="11.94 25.21 26.31 32.9 24.25 8.22 16.64 0 11.94 25.21"/>
  <polygon class="cls-1" points="75.43 89.71 78.5 89.71 86.18 100.46 75.43 89.71"/>
  <polygon class="cls-1" points="133.78 117.35 130.71 117.34 123.09 106.54 133.78 117.35"/>
  <polygon class="cls-1" points="26.31 32.9 191.64 200.75 190.96 208.26 11.94 25.21 26.31 32.9"/>
  <polygon class="cls-1" points="176.77 5.55 0 205.04 33.31 203.51 202.25 8.43 176.77 5.55"/>
  <polygon class="cls-1" points="33.31 203.51 33.18 192.44 9.44 194.6 0 205.04 33.31 203.51"/>
  <polygon class="cls-1" points="176.77 5.55 170.13 20.42 194.6 16.61 202.25 8.43 176.77 5.55"/>
  <polygon class="cls-1" points="116.99 73.49 117.21 76.55 107.03 84.98 116.99 73.49"/>
  <polygon class="cls-1" points="93.59 133.67 93.39 130.6 103.61 122.23 93.59 133.67"/>
  <polygon class="cls-1" points="170.13 20.42 14.55 197.36 7.01 197.21 176.77 5.55 170.13 20.42"/>
</svg>