<svg width="525" height="732" viewBox="0 0 525 732" fill="none" xmlns="http://www.w3.org/2000/svg">
<path d="M293.36 730.042C260.194 697.542 245.433 627.295 293.36 555.042C359.36 455.542 335.86 448.542 293.36 377.542C253.177 310.413 203.86 287.542 186.86 261.542C169.86 235.542 1.8604 90.5421 63.3604 27.0421C124.86 -36.4579 68.3604 190.542 120.36 242.542C172.36 294.542 534.86 231.042 406.86 67.5417C278.86 -95.9583 234.36 96.0417 186.86 131.542C139.36 167.042 -32.4647 152.542 8.86043 110.042C50.1856 67.5417 134.86 44.0417 186.86 67.5417C192.548 70.1119 197.128 72.3711 200.86 74.3847M200.86 74.3847C231.251 90.782 205.36 90.8932 262.36 110.042C326.36 131.542 401.86 79.042 423.36 53.042C444.86 27.0421 610.36 171.542 458.86 216.542C307.36 261.542 281.361 264.042 262.36 216.542C243.36 169.042 214.86 81.2277 200.86 74.3847Z" stroke="black" stroke-width="5"/>
</svg>
